<svg viewBox="0 0 370 600" xmlns="http://www.w3.org/2000/svg"><path fill="#eb5555" d="M91.57 20.186h236.619v38.113H91.57zm0 47.641h88.732v38.113H91.57zm98.59 0h138.028v38.113H190.16zm-98.59 47.642h39.436v38.113H91.57zm49.296 0h39.436v38.113h-39.436zm49.294 0h39.436v38.113H190.16zm49.297 0h39.436v38.113h-39.436zm49.295 0h39.436v38.113h-39.436z"/><path fill="rgba(71,95,119,.05)" d="M90.57 163.111h39.436v38.113H90.57zm50.296 0h39.436v38.113h-39.436zm49.294 0h39.436v38.113H190.16zm49.297 0h39.436v38.113h-39.436zm49.295 0h39.436v38.113h-39.436zM91.57 210.752h39.436v38.113H91.57zm49.296 0h39.436v38.113h-39.436zm49.294 0h39.436v38.113H190.16zm49.297 0h39.436v38.113h-39.436zm49.295 0h39.436v38.113h-39.436zM91.57 258.394h39.436v38.113H91.57zm49.296 0h39.436v38.113h-39.436zm49.294 0h39.436v38.113H190.16zm49.297 0h39.436v38.113h-39.436zm49.295 0h39.436v38.113h-39.436zM91.57 306.036h39.436v38.113H91.57zm49.296 0h39.436v38.113h-39.436zm49.294 0h39.436v38.113H190.16zm49.297 0h39.436v38.113h-39.436zm49.295 0h39.436v38.113h-39.436z"/><path fill="#1bbbda" d="M91.057 494.061h88.732v38.113H91.057zm98.59 0h138.028v38.113H189.647zm-98.59 47.64h236.619v38.113H91.057z"/><path fill="rgba(71,95,119,.05)" d="M42.273 163.111h39.436v38.113H42.273zm0 47.641h39.436v38.113H42.273zm0 47.642h39.436v38.113H42.273zm0 47.642h39.436v38.113H42.273z"/><path fill="#eb5555" d="M42.273 20.186h39.436v38.113H42.273zm0 47.641h39.436v38.113H42.273zm0 47.642h39.436v38.113H42.273z"/><path fill="#1bbbda" d="M41.76 494.061h39.436v38.113H41.76zm0 47.64h39.436v38.113H41.76z"/><path fill="rgba(71,95,119,.05)" d="M91.62 352.544h39.436v38.113H91.62zm49.298 0h39.436v38.113h-39.436zm49.293 0h39.436v38.113h-39.436zm49.297 0h39.436v38.113h-39.436zm49.296 0h39.436v38.113h-39.436zM91.62 400.186h39.436v38.113H91.62zm49.298 0h39.436v38.113h-39.436zm49.293 0h39.436v38.113h-39.436zm49.297 0h39.436v38.113h-39.436zm49.296 0h39.436v38.113h-39.436zM91.62 447.826h39.436v38.113H91.62zm49.298 0h39.436v38.113h-39.436zm49.293 0h39.436v38.113h-39.436zm49.297 0h39.436v38.113h-39.436zm49.296 0h39.436v38.113h-39.436zM42.326 352.544h39.436v38.113H42.326zm0 47.642h39.436v38.113H42.326zm0 47.64h39.436v38.113H42.326z"/></svg>