<svg viewBox="0 0 620 750" xmlns="http://www.w3.org/2000/svg"><path fill="#eb5555" d="M228.563 146.159h236.619v38.113H228.563zm0 47.642h88.732v38.113h-88.732zm98.591 0h138.028v38.113H327.154zm-98.591 47.641h39.436v38.113h-39.436zm49.295 0h39.436v38.113h-39.436zm49.296 0h39.436v38.113h-39.436zm49.296 0h39.436v38.113H376.45zm49.295 0h39.436v38.113h-39.436z"/><path fill="#475f77" d="M228.563 289.084h39.436v38.113h-39.436zm49.295 0h39.436v38.113h-39.436zm49.296 0h39.436v38.113h-39.436zm49.296 0h39.436v38.113H376.45zm49.295 0h39.436v38.113h-39.436zm-197.182 47.641h39.436v38.113h-39.436zm49.295 0h39.436v38.113h-39.436zm49.296 0h39.436v38.113h-39.436zm49.296 0h39.436v38.113H376.45zm49.295 0h39.436v38.113h-39.436zm-197.182 47.642h39.436v38.113h-39.436zm49.295 0h39.436v38.113h-39.436zm49.296 0h39.436v38.113h-39.436zm49.296 0h39.436v38.113H376.45zm49.295 0h39.436v38.113h-39.436zm-197.182 47.642h39.436v38.113h-39.436zm49.295 0h39.436v38.113h-39.436zm49.296 0h39.436v38.113h-39.436zm49.296 0h39.436v38.113H376.45zm49.295 0h39.436v38.113h-39.436z"/><path fill="#1bbbda" d="M228.05 620.034h88.732v38.113H228.05zm98.591 0h138.028v38.113H326.641zm-98.591 47.641h236.619v38.113H228.05z"/><path fill="#475f77" d="M179.267 289.084h39.436v38.113h-39.436zm0 47.641h39.436v38.113h-39.436zm0 47.642h39.436v38.113h-39.436zm0 47.642h39.436v38.113h-39.436z"/><path fill="#eb5555" d="M179.267 146.159h39.436v38.113h-39.436zm0 47.642h39.436v38.113h-39.436zm0 47.641h39.436v38.113h-39.436z"/><path fill="#1bbbda" d="M178.754 620.034h39.436v38.113h-39.436zm0 47.641h39.436v38.113h-39.436z"/><path d="M503.286 212.303h-5.113v-41.885h5.113v15.096a14.8 14.8 0 013.105-2.476c1.147-.687 2.422-1.03 3.826-1.03 1.083 0 1.92.309 2.508.926.59.617 1.003 1.394 1.24 2.33.238.93.356 1.876.356 2.84v24.2h-5.114v-22.597c0-1.069-.141-1.894-.423-2.476-.288-.59-.877-.885-1.768-.885-.609 0-1.24.19-1.894.573a9.571 9.571 0 00-1.836 1.394v23.99zm23.65.417c-2.165 0-3.837-.458-5.017-1.374-1.178-.915-2-2.26-2.46-4.036-.462-1.776-.693-3.954-.693-6.534v-6.825c0-2.656.238-4.865.712-6.627.48-1.755 1.317-3.08 2.508-3.974 1.2-.895 2.85-1.342 4.95-1.342 2.321 0 4.032.517 5.134 1.55 1.095 1.033 1.82 2.525 2.172 4.474.353 1.942.528 4.276.528 7.001v2.435h-10.89v5.992c0 1.207.103 2.188.308 2.945.205.762.538 1.324 1 1.685.46.36 1.06.54 1.797.54.763 0 1.343-.197 1.74-.592.397-.395.667-.965.807-1.706.148-.742.221-1.613.221-2.612v-1.81h4.97v1.134c0 3.004-.59 5.365-1.77 7.085-1.178 1.727-3.184 2.59-6.016 2.59zm-3.056-19.861v1.602h5.873v-2.684c0-1.241-.063-2.286-.192-3.131-.128-.846-.39-1.485-.788-1.915-.397-.43-1.025-.645-1.884-.645-.833 0-1.464.208-1.894.624-.429.41-.724 1.106-.884 2.092-.154.985-.231 2.337-.231 4.057zm20.486 19.86a4.404 4.404 0 01-2.864-1.009c-.827-.673-1.48-1.536-1.961-2.59a7.969 7.969 0 01-.711-3.33c0-1.865.284-3.436.855-4.712a9.45 9.45 0 012.365-3.225c1.005-.881 2.168-1.647 3.489-2.3a70.869 70.869 0 014.181-1.914v-2.122c0-1.207-.064-2.206-.192-2.996-.129-.798-.391-1.394-.788-1.79-.398-.395-.994-.593-1.788-.593-.706 0-1.273.174-1.702.52-.43.347-.74.836-.932 1.467-.192.638-.288 1.391-.288 2.258v1.498l-5.056-.208c.063-3.308.762-5.746 2.095-7.314 1.34-1.568 3.409-2.351 6.21-2.351 2.742 0 4.686.808 5.834 2.424 1.147 1.623 1.72 3.967 1.72 7.033v13.65c0 .929.023 1.827.068 2.694.05.86.115 1.661.192 2.403s.147 1.44.212 2.091h-4.681a330.89 330.89 0 01-.356-2.09 31.909 31.909 0 01-.308-2.3c-.32 1.173-.936 2.265-1.845 3.277-.904 1.02-2.153 1.53-3.749 1.53zm2.01-4.754c.511 0 .99-.156 1.431-.468a6.558 6.558 0 001.192-1.061c.352-.396.592-.715.721-.957v-8.48c-.795.48-1.545.96-2.25 1.447-.698.486-1.31.995-1.835 1.53a6.12 6.12 0 00-1.24 1.81c-.302.672-.452 1.438-.452 2.299 0 1.206.205 2.153.615 2.84.417.694 1.022 1.04 1.817 1.04zm19.772 4.755c-2.32 0-4.053-.923-5.2-2.768-1.147-1.844-1.72-4.973-1.72-9.384v-5.795c0-2.275.172-4.387.518-6.336.353-1.948 1.016-3.506 1.99-4.67.968-1.173 2.39-1.759 4.268-1.759.93 0 1.775.222 2.537.666a9.203 9.203 0 012.057 1.654v-13.91h5.104v41.885h-5.104v-1.914a8.364 8.364 0 01-1.99 1.685c-.71.43-1.53.646-2.46.646zm1.298-4.35a4.72 4.72 0 001.528-.28 6.657 6.657 0 001.624-.853v-19.6a8.953 8.953 0 00-1.48-.906 4.093 4.093 0 00-1.768-.385c-1.18 0-1.978.611-2.394 1.831-.41 1.228-.615 2.702-.615 4.422v8.437c0 1.374.07 2.622.211 3.746.142 1.116.436 1.994.885 2.632.442.637 1.112.957 2.009.957zm21.065 4.35c-2.165 0-3.838-.458-5.017-1.374-1.18-.915-2-2.26-2.46-4.036-.462-1.776-.693-3.954-.693-6.534v-6.825c0-2.656.238-4.865.711-6.627.481-1.755 1.317-3.08 2.51-3.974 1.198-.895 2.847-1.342 4.95-1.342 2.319 0 4.03.517 5.132 1.55 1.096 1.033 1.82 2.525 2.173 4.474.352 1.942.528 4.276.528 7.001v2.435h-10.89v5.992c0 1.207.103 2.188.307 2.945.205.762.539 1.324 1 1.685.461.36 1.06.54 1.797.54.763 0 1.343-.197 1.74-.592.397-.395.666-.965.808-1.706.147-.742.22-1.613.22-2.612v-1.81h4.97v1.134c0 3.004-.59 5.365-1.768 7.085-1.18 1.727-3.185 2.59-6.018 2.59zm-3.056-19.861v1.602h5.873v-2.684c0-1.241-.065-2.286-.193-3.131-.127-.846-.39-1.485-.788-1.915-.397-.43-1.025-.645-1.884-.645-.833 0-1.464.208-1.893.624-.43.41-.724 1.106-.885 2.092-.153.985-.23 2.337-.23 4.057zm20.774 19.444h-5.113v-29.89h5.113v4.245c1.02-1.83 2.038-3.055 3.057-3.672 1.019-.624 2.038-.936 3.057-.936h.365c.108 0 .26.017.452.052v6.107a7.332 7.332 0 00-1.317-.437 6.098 6.098 0 00-1.5-.188c-.801 0-1.528.198-2.182.593-.653.403-1.297 1.173-1.932 2.31v21.816zm-98.341 231.008c-.988 0-1.872-.267-2.653-.8a10.864 10.864 0 01-2.029-1.79v2.174h-5.113V401.01h5.113v14.378a9.456 9.456 0 012.173-1.966c.846-.548 1.858-.822 3.037-.822 1.435 0 2.573.403 3.412 1.207.846.811 1.478 1.83 1.894 3.058.41 1.22.68 2.459.807 3.714.128 1.262.193 2.341.193 3.236v7.24c0 2.102-.193 4.093-.577 5.973-.378 1.88-1.06 3.394-2.047 4.546-.993 1.158-2.397 1.737-4.21 1.737zm-1.048-4.348c.89 0 1.528-.354 1.913-1.062.377-.707.615-1.661.71-2.86.097-1.207.145-2.536.145-3.985v-7.241c0-1.241-.064-2.386-.192-3.433-.128-1.054-.397-1.894-.808-2.518-.416-.617-1.07-.926-1.96-.926-.667 0-1.295.156-1.884.468a8.223 8.223 0 00-1.558 1.03v19.185c.45.381.984.7 1.606.957a5.258 5.258 0 002.028.385zm20.113 4.348c-2.038 0-3.647-.447-4.825-1.342-1.18-.902-2.016-2.177-2.509-3.828-.494-1.658-.74-3.607-.74-5.847v-8.687c0-2.24.246-4.185.74-5.836.493-1.658 1.33-2.934 2.509-3.829 1.178-.895 2.787-1.342 4.825-1.342 2.038 0 3.636.447 4.796 1.342 1.166.895 1.996 2.171 2.49 3.829.493 1.65.74 3.596.74 5.836v8.687c0 2.24-.247 4.19-.74 5.847-.494 1.65-1.324 2.926-2.49 3.828-1.16.895-2.758 1.342-4.796 1.342zm0-4.088c.986 0 1.678-.31 2.076-.926.397-.624.635-1.443.712-2.455a39.74 39.74 0 00.124-3.184v-9.363c0-1.137-.042-2.206-.124-3.204-.077-1-.315-1.818-.712-2.456-.398-.637-1.09-.957-2.076-.957-.987 0-1.689.32-2.105.957-.417.638-.663 1.457-.74 2.456a38.513 38.513 0 00-.125 3.204v9.363c0 1.103.041 2.164.125 3.184.077 1.012.323 1.83.74 2.455.416.617 1.118.926 2.105.926zm19.1 4.088c-2.32 0-4.053-.922-5.2-2.767-1.147-1.845-1.72-4.973-1.72-9.384v-5.795c0-2.275.172-4.387.518-6.336.353-1.948 1.016-3.506 1.99-4.67.968-1.173 2.39-1.76 4.268-1.76.93 0 1.775.223 2.538.667a9.203 9.203 0 012.056 1.654v-13.91h5.104v41.885h-5.104v-1.914a8.364 8.364 0 01-1.99 1.685c-.71.43-1.53.645-2.46.645zm1.298-4.348c.474 0 .983-.094 1.528-.281a6.657 6.657 0 001.624-.853v-19.6a8.953 8.953 0 00-1.48-.906 4.093 4.093 0 00-1.768-.385c-1.18 0-1.978.61-2.394 1.831-.41 1.228-.615 2.702-.615 4.422v8.437c0 1.373.07 2.622.212 3.745.14 1.117.435 1.995.884 2.633.442.637 1.112.957 2.009.957zm13.607 11.433h-.616v-4.244c1.237 0 2.224-.06 2.96-.177.731-.125 1.257-.35 1.577-.677.32-.325.48-.783.48-1.373 0-.305-.112-.991-.336-2.06a1200.37 1200.37 0 00-.72-3.412l-5.537-25.447h5.152l3.73 22.336 3.585-22.336h5.161l-6.593 31.543c-.289 1.45-.815 2.598-1.577 3.444-.769.84-1.75 1.45-2.941 1.831-1.192.382-2.634.572-4.325.572zM507.3 676.368h-5.114v-25.801h-3.297v-4.089h3.297v-1.55c0-1.859.137-3.454.413-4.786.27-1.324.833-2.348 1.692-3.069.858-.728 2.15-1.092 3.873-1.092.635 0 1.199.028 1.692.083.493.05 1.045.143 1.653.281v4.037a12.23 12.23 0 00-.96-.188 6.992 6.992 0 00-.952-.072c-.988 0-1.618.353-1.894 1.06-.27.708-.404 1.648-.404 2.82v2.476h4.21v4.089h-4.21v25.8zm14.574.416c-2.038 0-3.646-.447-4.825-1.342-1.18-.902-2.016-2.178-2.509-3.829-.493-1.657-.74-3.607-.74-5.846v-8.687c0-2.24.247-4.186.74-5.837.493-1.657 1.33-2.934 2.509-3.828 1.18-.895 2.787-1.342 4.825-1.342 2.038 0 3.636.447 4.796 1.342 1.166.894 1.997 2.17 2.49 3.828.493 1.651.74 3.597.74 5.837v8.687c0 2.24-.247 4.19-.74 5.846-.493 1.651-1.324 2.927-2.49 3.829-1.16.895-2.758 1.342-4.796 1.342zm0-4.089c.987 0 1.68-.309 2.076-.926.397-.624.635-1.443.712-2.455.083-1.02.124-2.08.124-3.183v-9.364c0-1.137-.04-2.205-.124-3.204-.077-.999-.315-1.817-.712-2.455-.397-.638-1.089-.957-2.076-.957-.987 0-1.689.32-2.105.957-.416.638-.663 1.456-.74 2.455a38.513 38.513 0 00-.125 3.204v9.364c0 1.102.041 2.164.125 3.183.077 1.012.324 1.831.74 2.455.416.617 1.118.926 2.105.926zm20.302 4.089c-2.038 0-3.646-.447-4.826-1.342-1.178-.902-2.014-2.178-2.508-3.829-.493-1.657-.74-3.607-.74-5.846v-8.687c0-2.24.247-4.186.74-5.837.494-1.657 1.33-2.934 2.508-3.828 1.18-.895 2.788-1.342 4.826-1.342 2.037 0 3.637.447 4.796 1.342 1.167.894 1.996 2.17 2.49 3.828.494 1.651.74 3.597.74 5.837v8.687c0 2.24-.246 4.19-.74 5.846-.494 1.651-1.323 2.927-2.49 3.829-1.16.895-2.759 1.342-4.796 1.342zm0-4.089c.987 0 1.679-.309 2.076-.926.398-.624.634-1.443.711-2.455.084-1.02.125-2.08.125-3.183v-9.364c0-1.137-.041-2.205-.125-3.204-.077-.999-.313-1.817-.711-2.455-.397-.638-1.09-.957-2.076-.957-.987 0-1.688.32-2.105.957-.417.638-.664 1.456-.74 2.455a38.933 38.933 0 00-.126 3.204v9.364c0 1.102.043 2.164.125 3.183.077 1.012.324 1.831.74 2.455.418.617 1.12.926 2.106.926zm20.062 4.089c-1.436 0-2.593-.294-3.47-.884-.872-.583-1.506-1.408-1.903-2.476-.398-1.069-.596-2.328-.596-3.777v-19.496h-2.922v-3.673h2.922v-8.739h5.104v8.74h4.45v3.672h-4.45v19.132c0 1.172.176 2.008.528 2.507.352.5 1.022.75 2.01.75.25 0 .543-.018.884-.053.332-.034.659-.07.98-.104v4.089c-.641.104-1.23.18-1.769.229-.545.055-1.134.083-1.768.083zm15 0c-2.165 0-3.838-.458-5.017-1.373-1.179-.916-2-2.261-2.46-4.037-.462-1.776-.693-3.953-.693-6.533v-6.825c0-2.656.238-4.866.711-6.627.481-1.755 1.317-3.08 2.51-3.974 1.198-.895 2.848-1.342 4.95-1.342 2.32 0 4.03.517 5.132 1.55 1.096 1.033 1.82 2.525 2.173 4.473.352 1.943.528 4.276.528 7.002v2.434h-10.89v5.993c0 1.207.103 2.188.307 2.944.206.763.539 1.324 1 1.685.461.361 1.061.541 1.797.541.764 0 1.343-.197 1.74-.593.398-.395.667-.964.808-1.706.148-.742.22-1.612.22-2.611v-1.81h4.97v1.134c0 3.003-.59 5.365-1.768 7.084-1.179 1.727-3.185 2.591-6.018 2.591zm-3.056-19.86v1.602h5.873v-2.684c0-1.242-.064-2.286-.193-3.132-.127-.846-.39-1.485-.788-1.914-.397-.43-1.024-.645-1.884-.645-.832 0-1.464.208-1.893.624-.429.409-.724 1.106-.885 2.091-.153.985-.23 2.338-.23 4.057zm20.774 19.444h-5.113v-29.89h5.113v4.245c1.02-1.831 2.038-3.056 3.057-3.673 1.019-.624 2.038-.936 3.057-.936h.365c.108 0 .26.018.452.052v6.107a7.332 7.332 0 00-1.317-.437 6.086 6.086 0 00-1.5-.187c-.8 0-1.528.198-2.182.593-.653.402-1.297 1.172-1.932 2.31v21.816z" style="white-space:pre" fill="#333"/><path d="M36.684 79.853c-1.826 0-3.02-.724-3.585-2.174-.57-1.45-.455-3.905.346-7.366l1.048-4.557c.41-1.79.93-3.447 1.557-4.973.627-1.532 1.43-2.76 2.403-3.683.98-.915 2.208-1.373 3.681-1.373.724 0 1.346.174 1.865.52.519.354.958.788 1.317 1.3l2.518-10.923h4.018L44.268 79.53H40.25l.346-1.498a8.805 8.805 0 01-1.855 1.311c-.641.34-1.326.51-2.057.51zm1.807-3.412c.372 0 .788-.073 1.25-.219a7.03 7.03 0 001.432-.676l3.547-15.398a4.66 4.66 0 00-1-.707c-.378-.2-.817-.302-1.317-.302-.93 0-1.665.479-2.21 1.436-.551.964-.98 2.122-1.288 3.475l-1.529 6.627a23.992 23.992 0 00-.51 2.944c-.089.881-.016 1.571.222 2.07.23.5.699.75 1.403.75zm15.764 3.412c-1.705 0-2.936-.357-3.691-1.072-.763-.72-1.167-1.779-1.211-3.173-.039-1.394.176-3.106.644-5.14l1.24-5.357c.48-2.087 1.067-3.821 1.759-5.202.692-1.38 1.589-2.424 2.691-3.131 1.102-.7 2.476-1.051 4.124-1.051 1.826 0 3.078.406 3.758 1.217.673.812.97 1.984.894 3.517-.077 1.526-.362 3.36-.855 5.503l-.433 1.904h-8.564l-1.087 4.713c-.218.95-.314 1.724-.288 2.32.025.597.189 1.037.49 1.321.294.285.73.427 1.308.427.596 0 1.086-.156 1.47-.469.385-.312.702-.759.952-1.342a13.44 13.44 0 00.644-2.05l.327-1.424h3.902l-.211.894c-.539 2.359-1.427 4.214-2.663 5.566-1.244 1.353-2.977 2.029-5.2 2.029zm1.192-15.595l-.288 1.259h4.613l.49-2.112c.224-.978.362-1.8.414-2.466.05-.658-.042-1.158-.279-1.498-.23-.34-.686-.51-1.365-.51-.648 0-1.18.164-1.595.49-.41.326-.766.873-1.067 1.643-.302.77-.61 1.835-.923 3.194zM69.412 79.53h-4.008l4.662-20.276H67.48l.74-3.205h2.586l.288-1.217c.334-1.463.728-2.718 1.183-3.766.455-1.04 1.083-1.844 1.884-2.414.807-.568 1.887-.853 3.239-.853.5 0 .939.021 1.317.063.378.041.795.114 1.25.218l-.731 3.173a7.289 7.289 0 00-.721-.145 5.73 5.73 0 00-.74-.052c-.775 0-1.333.277-1.673.832-.34.556-.615 1.29-.826 2.206l-.452 1.955h3.306l-.74 3.205h-3.306L69.412 79.53zm9.311.323c-.851 0-1.54-.263-2.066-.79-.532-.527-.89-1.203-1.077-2.03-.179-.824-.163-1.698.048-2.621.334-1.463.843-2.695 1.529-3.693a10.065 10.065 0 012.441-2.539 17.2 17.2 0 013.153-1.81 89.981 89.981 0 013.633-1.509l.385-1.664c.218-.95.35-1.734.394-2.351.038-.625-.06-1.093-.298-1.405-.243-.312-.676-.468-1.298-.468-.55 0-1.028.135-1.432.406-.397.27-.73.655-1 1.154a7.765 7.765 0 00-.634 1.769l-.27 1.176-3.94-.156c.648-2.601 1.64-4.519 2.98-5.754 1.333-1.227 3.101-1.841 5.305-1.841 2.154 0 3.532.635 4.134 1.904.609 1.276.638 3.118.086 5.524l-2.47 10.726a35.38 35.38 0 00-.433 2.112c-.12.68-.217 1.311-.288 1.894-.07.582-.14 1.13-.212 1.643h-3.671c.019-.43.052-.978.096-1.643.038-.666.096-1.27.173-1.81-.467.922-1.15 1.783-2.048 2.58-.896.797-1.97 1.196-3.22 1.196zm2.442-3.735c.398 0 .802-.12 1.211-.364a7.24 7.24 0 001.125-.832c.346-.313.593-.562.74-.75l1.538-6.668c-.717.382-1.394.76-2.028 1.134a13.4 13.4 0 00-1.721 1.207 6.646 6.646 0 00-1.307 1.415 5.247 5.247 0 00-.77 1.81c-.216.95-.226 1.696-.028 2.237.199.54.612.811 1.24.811zm12.76 3.735c-.853 0-1.458-.242-1.817-.728-.365-.485-.557-1.096-.577-1.831a9.017 9.017 0 01.231-2.237l4.383-19.008h4.018l-4.085 17.707c-.192.847-.23 1.506-.115 1.977.115.472.525.708 1.23.708.449 0 .949-.142 1.5-.427a11.805 11.805 0 001.653-1.03l4.354-18.935h4.018l-5.412 23.481h-4.008l.529-2.32c-.872.736-1.81 1.36-2.817 1.873-1.006.514-2.035.77-3.085.77zm17.87-.323h-4.017l7.584-32.906h4.008l-7.574 32.906zm9.903.323c-1.122 0-1.974-.229-2.557-.687-.583-.464-.936-1.116-1.057-1.956-.116-.838-.043-1.826.22-2.965l3.528-15.314h-2.287l.663-2.882h2.288l1.576-6.866h4.018l-1.576 6.866h3.489l-.664 2.882h-3.489l-3.47 15.033c-.211.923-.225 1.579-.038 1.967.185.395.666.593 1.442.593.198 0 .432-.014.701-.042.27-.027.532-.055.789-.083l-.74 3.215c-.52.083-.997.142-1.433.176-.43.042-.898.063-1.403.063z" style="line-height:62.4811px;white-space:pre" fill="#333"/><path d="M506.918 89.924h-5.114l9.15-39.711h5.105l-.548 2.382a12.897 12.897 0 012.653-1.966 6.588 6.588 0 013.249-.822c1.435 0 2.48.403 3.133 1.207.66.812 1.057 1.831 1.192 3.059a15.99 15.99 0 01-.048 3.714 35.56 35.56 0 01-.558 3.235l-1.662 7.241a34.705 34.705 0 01-1.952 5.972c-.814 1.88-1.855 3.396-3.124 4.546-1.268 1.16-2.813 1.738-4.633 1.738-.987 0-1.8-.267-2.441-.801a8.124 8.124 0 01-1.634-1.842l-2.768 12.048zm6.843-13.754c.891 0 1.609-.354 2.154-1.061.545-.708 1.006-1.66 1.384-2.861a56.8 56.8 0 001.057-3.985l1.663-7.24c.288-1.242.49-2.386.605-3.434.116-1.054.039-1.893-.23-2.517-.276-.617-.859-.926-1.75-.926-.666 0-1.339.156-2.018.468a9.412 9.412 0 00-1.826 1.082l-4.403 19.132c.391.382.859.701 1.404.957.545.257 1.198.385 1.96.385zm16.48 4.349c-1.083 0-1.96-.336-2.633-1.01-.673-.671-1.125-1.535-1.356-2.59-.237-1.047-.22-2.157.048-3.33.43-1.864 1.077-3.435 1.942-4.712a13.02 13.02 0 013.114-3.225 21.607 21.607 0 014.018-2.3 91.13 91.13 0 014.614-1.913l.49-2.123c.276-1.207.442-2.205.5-2.996.058-.797-.067-1.394-.375-1.79-.308-.395-.858-.592-1.653-.592-.705 0-1.31.173-1.817.52-.512.347-.935.836-1.269 1.467-.339.638-.608 1.39-.807 2.257l-.346 1.498-5.018-.208c.827-3.308 2.09-5.746 3.788-7.313 1.698-1.567 3.95-2.352 6.757-2.352 2.736 0 4.492.809 5.267 2.424.77 1.623.8 3.968.096 7.033l-3.143 13.65c-.211.93-.394 1.828-.548 2.694-.153.86-.276 1.662-.365 2.403-.09.743-.18 1.44-.27 2.092h-4.68c.032-.555.074-1.252.125-2.092.05-.845.125-1.612.22-2.299-.588 1.173-1.453 2.265-2.594 3.277-1.141 1.02-2.51 1.53-4.105 1.53zm3.105-4.755c.512 0 1.026-.156 1.538-.468.519-.312 1-.666 1.442-1.061.442-.395.752-.714.932-.957l1.96-8.48c-.91.48-1.77.962-2.585 1.447a18.03 18.03 0 00-2.182 1.53 8.456 8.456 0 00-1.663 1.81 6.811 6.811 0 00-.98 2.299c-.282 1.207-.295 2.153-.038 2.84.256.694.781 1.04 1.576 1.04zm17.63 4.339h-5.114l6.892-29.89h5.104l-.971 4.245c1.435-1.831 2.736-3.055 3.902-3.673 1.16-.624 2.25-.936 3.268-.936h.356c.115 0 .262.018.442.052l-1.403 6.107a5.838 5.838 0 00-1.211-.437 5.642 5.642 0 00-1.461-.187c-.795 0-1.567.197-2.317.593-.743.402-1.564 1.172-2.46 2.31l-5.028 21.816zm17.342.416c-1.436 0-2.522-.295-3.258-.885-.744-.582-1.192-1.407-1.346-2.476-.148-1.067-.055-2.326.279-3.776l4.489-19.496h-2.913l.846-3.673h2.913l2.009-8.739h5.113l-2.009 8.739h4.441l-.846 3.673h-4.44l-4.412 19.132c-.27 1.172-.286 2.008-.049 2.507.231.5.84.75 1.827.75.255 0 .557-.018.903-.053.34-.034.673-.069 1-.104l-.942 4.089a26.53 26.53 0 01-1.817.229c-.557.056-1.153.083-1.788.083z" style="white-space:pre" fill="#333"/><path fill="#475f77" d="M228.614 478.517h39.436v38.113h-39.436zm49.296 0h39.436v38.113H277.91zm49.295 0h39.436v38.113h-39.436zm49.296 0h39.436v38.113h-39.436zm49.296 0h39.436v38.113h-39.436zm-197.183 47.642h39.436v38.113h-39.436zm49.296 0h39.436v38.113H277.91zm49.295 0h39.436v38.113h-39.436zm49.296 0h39.436v38.113h-39.436zm49.296 0h39.436v38.113h-39.436zM228.614 573.8h39.436v38.113h-39.436zm49.296 0h39.436v38.113H277.91zm49.295 0h39.436v38.113h-39.436zm49.296 0h39.436v38.113h-39.436zm49.296 0h39.436v38.113h-39.436zm-246.478-95.283h39.436v38.113h-39.436zm0 47.642h39.436v38.113h-39.436zm0 47.641h39.436v38.113h-39.436z"/><path d="M34.96 207.46c-1.454 0-2.482-.315-3.085-.946-.602-.638-.897-1.533-.884-2.684.007-1.152.185-2.49.538-4.016l1.02-4.422c.371-1.615.823-2.996 1.354-4.14.526-1.145 1.234-2.019 2.125-2.622.89-.61 2.05-.916 3.48-.916 1.287 0 2.232.226 2.835.677.602.457.935 1.134 1 2.028.057.895-.068 2.008-.375 3.34l-.26 1.134h-2.98l.27-1.165c.192-.84.295-1.506.307-1.998.007-.486-.096-.84-.308-1.061-.218-.222-.573-.333-1.066-.333-.532 0-.971.132-1.317.395-.346.271-.638.721-.875 1.353-.237.631-.48 1.488-.73 2.57l-1.394 6.055c-.378 1.636-.49 2.733-.337 3.287.16.555.609.832 1.346.832.557 0 .993-.138 1.307-.416.32-.278.577-.669.77-1.175.185-.513.352-1.09.499-1.727l.365-1.571h2.98l-.308 1.331c-.295 1.29-.689 2.4-1.182 3.33-.487.929-1.14 1.636-1.96 2.122-.82.492-1.865.738-3.134.738zm12.651 0c-1.307 0-2.274-.29-2.903-.873-.62-.576-.97-1.395-1.047-2.456-.07-1.06.061-2.312.394-3.755l1.288-5.587c.333-1.436.778-2.687 1.336-3.756.564-1.061 1.292-1.88 2.182-2.455.89-.575 1.99-.864 3.297-.864 1.314 0 2.278.289 2.893.864.615.575.958 1.394 1.028 2.455.071 1.069-.06 2.32-.394 3.756l-1.278 5.587c-.333 1.443-.782 2.694-1.346 3.755-.563 1.061-1.284 1.88-2.163 2.456-.877.582-1.973.873-3.287.873zm.606-2.632c.634 0 1.124-.197 1.47-.593.353-.402.629-.929.827-1.581.206-.652.388-1.335.548-2.05l1.384-6.013c.173-.728.308-1.415.404-2.06.096-.645.064-1.172-.096-1.581-.167-.409-.568-.614-1.202-.614s-1.13.205-1.49.614c-.358.409-.637.936-.836 1.581a33.083 33.083 0 00-.558 2.06l-1.384 6.013c-.16.715-.29 1.398-.394 2.05-.096.652-.057 1.179.116 1.581.173.396.576.593 1.21.593zm11.216 2.362h-3.287l6.21-26.925h3.286l-6.209 26.925zm6.726 0H62.88l4.421-19.215h3.288l-.442 1.893a13.842 13.842 0 012.326-1.53 5.445 5.445 0 012.508-.624c.717 0 1.217.198 1.5.593.288.403.442.902.461 1.499a7.605 7.605 0 01-.192 1.83l-3.585 15.554h-3.288l3.345-14.523c.16-.687.193-1.22.097-1.603-.103-.374-.44-.561-1.01-.561-.372 0-.782.117-1.23.353a8.83 8.83 0 00-1.346.843L66.16 207.19zm13.328.27c-.692 0-1.257-.218-1.692-.655-.43-.43-.721-.981-.875-1.654-.154-.68-.141-1.397.039-2.154.275-1.193.692-2.198 1.25-3.017a8.233 8.233 0 011.999-2.08 14.067 14.067 0 012.576-1.478 59.081 59.081 0 012.97-1.227l.317-1.363c.179-.777.284-1.422.317-1.935.039-.507-.042-.888-.24-1.145-.2-.257-.555-.385-1.067-.385-.45 0-.836.112-1.163.333-.327.222-.6.538-.817.947a5.87 5.87 0 00-.52 1.446l-.22.968-3.22-.136c.524-2.13 1.336-3.696 2.431-4.702 1.09-1.006 2.538-1.509 4.345-1.509 1.755 0 2.884.52 3.384 1.561.493 1.04.515 2.546.067 4.515l-2.028 8.78c-.135.597-.25 1.173-.346 1.728a39.645 39.645 0 00-.24 1.55c-.058.471-.116.919-.174 1.342h-3.008c.025-.354.054-.801.086-1.342.032-.548.077-1.044.135-1.488-.379.757-.933 1.46-1.663 2.112-.737.659-1.619.988-2.643.988zm1.999-3.058c.327 0 .656-.101.99-.302.333-.2.64-.43.923-.687.281-.25.483-.454.605-.613l1.25-5.452c-.584.312-1.134.624-1.653.936-.52.305-.99.632-1.413.978a5.481 5.481 0 00-1.058 1.166c-.295.43-.506.922-.634 1.477-.18.777-.19 1.387-.029 1.831.166.444.506.666 1.019.666zm10.996 2.788h-3.037l4.421-19.215h3.038l-.423 1.83c.763-.728 1.544-1.272 2.345-1.633.802-.354 1.58-.53 2.336-.53.653 0 1.201.176 1.643.53.437.361.664.996.683 1.904.827-.846 1.66-1.464 2.499-1.852.833-.388 1.66-.582 2.48-.582.577 0 1.064.148 1.46.447.405.305.674.783.808 1.436.142.652.087 1.508-.163 2.57l-3.47 15.095h-3.009l3.422-14.856c.212-.93.219-1.558.02-1.883-.205-.32-.545-.479-1.02-.479-.447 0-.947.138-1.499.416a7.014 7.014 0 00-1.624 1.145l-.058.27-.067.291-3.48 15.096H96.78l3.422-14.856c.218-.93.224-1.558.019-1.883-.198-.32-.535-.479-1.01-.479-.447 0-.944.138-1.49.416a7.825 7.825 0 00-1.633 1.145l-3.605 15.657zm22.69.27c-1.39 0-2.396-.294-3.018-.884-.62-.59-.948-1.453-.98-2.59-.039-1.145.134-2.546.519-4.203l1.009-4.39c.398-1.707.879-3.125 1.442-4.256.57-1.13 1.304-1.984 2.2-2.56.904-.574 2.033-.863 3.384-.863 1.494 0 2.516.333 3.067 1 .551.658.797 1.615.74 2.87-.064 1.249-.298 2.75-.702 4.505l-.365 1.56h-6.998l-.894 3.86c-.173.77-.25 1.402-.23 1.894.019.486.15.846.394 1.082.244.229.6.343 1.067.343.494 0 .897-.128 1.21-.385.315-.25.575-.613.78-1.092.198-.479.371-1.037.518-1.675l.27-1.165h3.2l-.173.728c-.442 1.928-1.168 3.447-2.182 4.557-1.012 1.11-2.431 1.664-4.258 1.664zm.98-12.765l-.24 1.03h3.778l.404-1.727c.18-.798.292-1.47.336-2.018.045-.541-.029-.95-.221-1.228-.192-.277-.567-.416-1.125-.416-.531 0-.964.132-1.297.395-.34.271-.635.721-.885 1.353-.243.631-.493 1.501-.75 2.611zm11.152 12.765c-1.455 0-2.505-.496-3.153-1.487-.654-.985-.856-2.286-.606-3.902l2.932-.894c-.115 1.214-.048 2.125.202 2.736.25.61.753.915 1.509.915.596 0 1.09-.184 1.48-.551.391-.361.658-.853.798-1.477.129-.555.132-1.054.01-1.498-.122-.437-.388-.892-.798-1.363l-2.384-2.82a6.364 6.364 0 01-1.105-1.924c-.256-.715-.256-1.637 0-2.768.237-1.02.624-1.876 1.163-2.57a5.352 5.352 0 011.97-1.602c.77-.36 1.612-.54 2.528-.54 1.417 0 2.384.492 2.903 1.477.519.985.67 2.174.452 3.568l-2.413.905c.071-.666.08-1.248.029-1.748-.051-.499-.186-.887-.404-1.165-.224-.277-.573-.416-1.047-.416-.532 0-1 .195-1.404.583a2.7 2.7 0 00-.798 1.383 2.404 2.404 0 00-.028.978c.064.32.224.635.48.947l2.413 3.121c.333.424.631.877.894 1.363.269.492.455 1.048.557 1.665.103.617.058 1.339-.134 2.164-.25 1.082-.664 1.99-1.24 2.725a5.52 5.52 0 01-2.096 1.644c-.82.367-1.723.551-2.71.551zm-90.9 226.023c-1.493 0-2.47-.593-2.932-1.779-.467-1.186-.375-3.197.279-6.034l.855-3.725c.34-1.463.766-2.822 1.278-4.078.514-1.248 1.17-2.25 1.97-3.006.796-.75 1.798-1.124 3.01-1.124.595 0 1.105.143 1.528.427.423.29.782.645 1.076 1.06l2.057-8.936h3.288l-6.2 26.925h-3.287l.278-1.228a7.34 7.34 0 01-1.518 1.082 3.544 3.544 0 01-1.682.416zm1.47-2.798c.308 0 .65-.06 1.029-.177a5.853 5.853 0 001.172-.552l2.903-12.599a3.909 3.909 0 00-.817-.582 2.282 2.282 0 00-1.086-.25c-.756 0-1.358.396-1.807 1.186-.442.784-.791 1.73-1.048 2.84l-1.25 5.41a19.251 19.251 0 00-.413 2.414c-.077.72-.019 1.287.173 1.696.193.409.574.614 1.144.614zm11.18 2.798c-.691 0-1.255-.218-1.69-.655-.43-.43-.722-.981-.876-1.655-.153-.679-.14-1.397.039-2.153.276-1.193.692-2.198 1.25-3.017a8.233 8.233 0 011.999-2.08 14.067 14.067 0 012.576-1.478 59.836 59.836 0 012.97-1.228l.317-1.363c.18-.777.286-1.422.317-1.935.039-.506-.041-.887-.24-1.144-.199-.257-.555-.385-1.067-.385-.449 0-.836.111-1.163.333-.327.221-.599.538-.817.947a5.87 5.87 0 00-.519 1.446l-.221.967-3.22-.135c.526-2.13 1.336-3.696 2.432-4.702 1.089-1.006 2.537-1.509 4.344-1.509 1.756 0 2.884.52 3.384 1.56.493 1.04.516 2.546.067 4.516l-2.028 8.78c-.135.597-.25 1.173-.346 1.727a41.555 41.555 0 00-.24 1.55c-.058.472-.116.92-.173 1.343H53.14c.026-.354.055-.801.087-1.342.031-.549.076-1.044.134-1.488-.378.756-.932 1.46-1.663 2.112-.737.658-1.618.988-2.643.988zm2-3.059c.327 0 .657-.1.99-.301.334-.201.641-.43.923-.687a4.93 4.93 0 00.606-.614l1.25-5.451c-.584.312-1.135.624-1.654.936-.52.305-.99.632-1.413.978a5.507 5.507 0 00-1.057 1.165 4.27 4.27 0 00-.635 1.478c-.18.777-.19 1.386-.029 1.83.167.445.507.666 1.02.666zm12.376 3.06c-.923 0-1.62-.191-2.096-.573-.474-.375-.76-.905-.855-1.592-.102-.687-.044-1.495.173-2.424l2.883-12.536h-1.874l.548-2.362h1.874l1.288-5.618h3.288l-1.288 5.618h2.854l-.547 2.362h-2.855l-2.836 12.297c-.173.756-.182 1.293-.029 1.612.148.326.539.49 1.173.49.167 0 .36-.014.577-.042.225-.021.439-.042.644-.063l-.606 2.622c-.423.07-.81.122-1.163.156-.358.034-.743.052-1.153.052zm7.921 0c-.692 0-1.256-.22-1.692-.656-.43-.43-.72-.981-.874-1.655-.154-.679-.142-1.397.038-2.153.275-1.193.692-2.198 1.25-3.017a8.233 8.233 0 011.999-2.08 14.067 14.067 0 012.576-1.478 59.081 59.081 0 012.97-1.228l.317-1.363c.179-.777.285-1.422.317-1.935.039-.506-.042-.887-.24-1.144-.199-.257-.554-.385-1.067-.385-.449 0-.836.111-1.163.333-.327.221-.6.538-.817.947a5.87 5.87 0 00-.519 1.446l-.221.967-3.22-.135c.525-2.13 1.336-3.696 2.432-4.702 1.089-1.006 2.537-1.509 4.344-1.509 1.756 0 2.884.52 3.384 1.56.493 1.04.515 2.546.067 4.516l-2.028 8.78c-.135.597-.25 1.173-.346 1.727a39.645 39.645 0 00-.24 1.55c-.058.472-.116.92-.173 1.343h-3.009c.025-.354.054-.801.087-1.342.031-.549.076-1.044.134-1.488-.379.756-.932 1.46-1.663 2.112-.737.658-1.618.988-2.643.988zm2-3.06c.326 0 .656-.1.99-.301.332-.201.64-.43.922-.687.282-.25.484-.455.606-.614l1.25-5.451c-.584.312-1.135.624-1.654.936-.52.305-.99.632-1.413.978a5.481 5.481 0 00-1.057 1.165 4.29 4.29 0 00-.635 1.478c-.18.777-.19 1.386-.029 1.83.167.445.506.666 1.02.666zm-36.15 240.669c-1.39 0-2.396-.294-3.018-.884-.62-.59-.948-1.453-.98-2.59-.039-1.145.134-2.546.519-4.204l1.009-4.39c.398-1.706.879-3.124 1.442-4.255.57-1.13 1.304-1.984 2.201-2.56.904-.575 2.032-.863 3.383-.863 1.494 0 2.516.333 3.067.999.551.658.797 1.616.74 2.871-.064 1.249-.298 2.75-.702 4.505l-.365 1.56h-6.998l-.894 3.86c-.173.77-.25 1.402-.23 1.894.019.486.15.846.394 1.082.244.229.6.343 1.067.343.494 0 .897-.128 1.21-.385.315-.25.575-.614.78-1.092.198-.479.371-1.037.518-1.675l.27-1.165h3.2l-.173.728c-.442 1.928-1.168 3.447-2.182 4.557-1.012 1.11-2.431 1.664-4.258 1.664zm.98-12.765l-.24 1.03h3.778l.404-1.727c.18-.798.292-1.47.336-2.018.045-.541-.029-.95-.221-1.228s-.567-.416-1.125-.416c-.531 0-.964.132-1.297.395-.34.27-.635.721-.885 1.353-.243.631-.493 1.5-.75 2.611zm10.142 12.495h-3.037l4.422-19.216h3.037l-.423 1.831c.762-.728 1.545-1.272 2.345-1.633.801-.354 1.58-.53 2.336-.53.654 0 1.202.176 1.644.53.435.36.663.996.682 1.904.827-.846 1.66-1.464 2.5-1.852.833-.388 1.66-.583 2.48-.583.576 0 1.063.15 1.46.448.404.305.673.783.808 1.435.141.653.086 1.509-.164 2.57l-3.47 15.096h-3.008l3.422-14.857c.211-.929.218-1.557.019-1.883-.205-.32-.545-.478-1.019-.478-.449 0-.949.138-1.5.416a7.014 7.014 0 00-1.624 1.144l-.058.27c-.019.084-.04.18-.067.292l-3.48 15.096H52.62l3.422-14.857c.218-.929.224-1.557.02-1.883-.2-.32-.536-.478-1.01-.478-.449 0-.945.138-1.49.416a7.8 7.8 0 00-1.634 1.144l-3.605 15.658zm19.672 6.315h-3.287l5.883-25.53h3.287l-.356 1.529a8.05 8.05 0 011.702-1.26 4.23 4.23 0 012.095-.53c.916 0 1.586.26 2.009.78.423.52.68 1.173.769 1.956.084.791.074 1.589-.029 2.393a25.13 25.13 0 01-.356 2.08l-1.076 4.651a22.7 22.7 0 01-1.25 3.84c-.525 1.206-1.194 2.184-2.009 2.933-.82.742-1.813 1.113-2.98 1.113-.634 0-1.156-.174-1.566-.52a4.903 4.903 0 01-1.048-1.176l-1.788 7.74zm4.403-8.843c.57 0 1.031-.226 1.384-.677.353-.457.647-1.074.884-1.851.243-.77.471-1.623.683-2.56l1.076-4.65c.18-.798.308-1.533.385-2.206.07-.68.019-1.217-.154-1.612-.173-.403-.545-.604-1.115-.604-.436 0-.868.101-1.298.302-.435.2-.83.434-1.182.697l-2.826 12.297c.25.243.55.448.904.614.346.166.766.25 1.259.25zm12.13 2.798c-.923 0-1.621-.19-2.095-.572-.475-.375-.76-.905-.856-1.592-.103-.686-.045-1.495.173-2.424l2.884-12.536H82.76l.547-2.362h1.875l1.288-5.618h3.287l-1.288 5.618h2.855l-.548 2.362H87.92l-2.835 12.297c-.173.756-.183 1.293-.03 1.613.148.325.54.488 1.173.488.167 0 .359-.013.577-.041l.644-.063-.605 2.622c-.423.07-.812.122-1.163.156-.36.035-.744.052-1.154.052zm3.806 4.547h-.403l.634-2.726c.795 0 1.436-.039 1.923-.115.494-.076.865-.218 1.115-.426.256-.215.426-.51.509-.884.045-.201.077-.645.096-1.332.014-.687.026-1.418.039-2.195l.211-16.355h3.316l-.913 14.368 5.613-14.368h3.317l-8.91 20.277c-.398.929-.907 1.668-1.529 2.216a5.63 5.63 0 01-2.153 1.175c-.827.243-1.781.365-2.865.365z" style="line-height:51.1209px;white-space:pre" fill="#333"/></svg>