<svg viewBox="0 0 580 360" xmlns="http://www.w3.org/2000/svg" xmlns:bx="https://boxy-svg.com"><defs><style bx:fonts="Roboto">@font-face{font-family:Roboto;font-style:normal;font-weight:400;font-stretch:normal;font-variant:normal;font-feature-settings:normal;src:url(https://fonts.gstatic.com/s/roboto/v18/KFOmCnqEu92Fr1Me5Q.ttf)}</style></defs><path fill="#aaa" d="M323.82 20.039h5v95h-5z"/><path fill="#eb5555" d="M180.82 20.039h120v20h-120zm0 25h45v20h-45zm50 0h70v20h-70zm-50 25h20v20h-20zm25 0h20v20h-20zm25 0h20v20h-20zm25 0h20v20h-20zm25 0h20v20h-20z"/><path fill="#475f77" d="M180.82 95.039h20v20h-20zm25 0h20v20h-20zm25 0h20v20h-20zm25 0h20v20h-20zm25 0h20v20h-20zm-100 25h20v20h-20zm25 0h20v20h-20zm25 0h20v20h-20zm25 0h20v20h-20zm25 0h20v20h-20zm-100 25h20v20h-20zm25 0h20v20h-20zm25 0h20v20h-20zm25 0h20v20h-20zm25 0h20v20h-20zm-100 25h20v20h-20zm25 0h20v20h-20zm25 0h20v20h-20zm25 0h20v20h-20zm25 0h20v20h-20z"/><path fill="#1bbbda" d="M180.82 195.039h45v20h-45zm50 0h70v20h-70zm-50 25h120v20h-120z"/><path fill="#aaa" d="M324.82 143h5v95h-5z"/><text style="white-space:pre" x="380.071" y="34.071" fill="#333" font-family="Roboto" font-size="14" text-anchor="end">Header</text><text style="white-space:pre" x="333.008" y="50.398" fill="#eb5555" font-family="Roboto Mono" font-size="8">add_header_row()</text><text style="white-space:pre" x="333.008" y="65.398" fill="#333" font-family="Roboto Mono" font-size="8">add_header_lines()</text><text style="white-space:pre" x="333.008" y="80.398" fill="#333" font-family="Roboto Mono" font-size="8">add_header()</text><text style="white-space:pre" x="333.008" y="95.398" fill="#eb5555" font-family="Roboto Mono" font-size="8">set_header_labels()</text><text style="white-space:pre" x="333.008" y="110.398" fill="#333" font-family="Roboto Mono" font-size="8">set_header_df()</text><text style="white-space:pre" x="375.286" y="156.442" fill="#333" font-family="Roboto" font-size="14" text-anchor="end">Footer</text><text style="white-space:pre" x="333.011" y="175" fill="#333" font-family="Roboto Mono" font-size="8">add_footer_row()</text><text style="white-space:pre" x="333.011" y="190" fill="#333" font-family="Roboto Mono" font-size="8">add_footer_lines()</text><text style="white-space:pre" x="333.011" y="205" fill="#333" font-family="Roboto Mono" font-size="8">add_footer()</text><text style="white-space:pre" x="333.008" y="220" fill="#333" font-family="Roboto Mono" font-size="8">set_footer_labels()</text><text style="white-space:pre" x="333.011" y="235" fill="#333" font-family="Roboto Mono" font-size="8">set_footer_df()</text><text style="white-space:pre" x="450.808" y="33.148" fill="#333" font-family="Roboto" font-size="14">Style</text><text style="white-space:pre" x="450.808" y="53.148" fill="#333" font-family="Roboto Mono" font-size="8">style(): general style function</text><text style="white-space:pre" x="450.808" y="68.148" fill="#333" font-family="Roboto Mono" font-size="8">align(): set text alignment</text><text style="white-space:pre" x="450.808" y="83.148" fill="#333" font-family="Roboto Mono" font-size="8">bg(): set background color</text><text style="white-space:pre" x="450.808" y="98.148" fill="#333" font-family="Roboto Mono" font-size="8">font(): set font</text><text style="white-space:pre" x="450.808" y="113.148" fill="#333" font-family="Roboto Mono" font-size="8">fontsize(): set font size</text><text style="white-space:pre" x="450.808" y="128.148" fill="#333" font-family="Roboto Mono" font-size="8">italic(): set italic font</text><text style="white-space:pre" x="450.808" y="143.148" fill="#333" font-family="Roboto Mono" font-size="8">bold(): set bold font</text><text style="white-space:pre" x="450.808" y="158.148" fill="#333" font-family="Roboto Mono" font-size="8">color(): set font color</text><text style="white-space:pre" x="450.808" y="173.148" fill="#333" font-family="Roboto Mono" font-size="8">padding(): set paragraph paddings</text><text style="white-space:pre" x="450.808" y="188.148" fill="#333" font-family="Roboto Mono" font-size="8">rotate(): rotate cell text</text><path fill="#aaa" d="M440.82 21.039h5v216h-5z"/><text style="white-space:pre" x="450.808" y="265.039" fill="#333" font-family="Roboto" font-size="14">Borders</text><text style="white-space:pre" x="450.808" y="285.039" fill="#333" font-family="Roboto Mono" font-size="8">border_outer() border_inner_h()</text><text style="white-space:pre" x="450.808" y="300.039" fill="#333" font-family="Roboto Mono" font-size="8">border_inner_v() hline()</text><text style="white-space:pre" x="450.808" y="315.039" fill="#333" font-family="Roboto Mono" font-size="8">hline_top() hline_bottom()</text><text style="white-space:pre" x="450.808" y="330.039" fill="#333" font-family="Roboto Mono" font-size="8">vline() vline_left()</text><text style="white-space:pre" x="450.808" y="345.039" fill="#333" font-family="Roboto Mono" font-size="8">vline_right()</text><path fill="#aaa" d="M440.82 251.039h5v99h-5z"/><path fill="#475f77" d="M155.82 95.039h20v20h-20zm0 25h20v20h-20zm0 25h20v20h-20zm0 25h20v20h-20z"/><path fill="#eb5555" d="M155.82 20.039h20v20h-20zm0 25h20v20h-20zm0 25h20v20h-20z"/><path fill="#1bbbda" d="M155.82 195.039h20v20h-20zm0 25h20v20h-20z"/><text style="white-space:pre" x="160.008" y="273.18" transform="matrix(1 0 0 .99805 38.8 .507)" fill="#333" font-family="Roboto" font-size="14">Format content</text><text transform="matrix(1 0 0 .99805 38.8 .507)" style="white-space:pre" x="160.008" y="293.18" fill="#333" font-family="Roboto Mono" font-size="8">colformat_char() colformat_int()</text><text transform="matrix(1 0 0 .99805 38.8 .507)" style="white-space:pre" x="160.008" y="308.18" fill="#333" font-family="Roboto Mono" font-size="8">colformat_lgl() colformat_num()</text><text transform="matrix(1 0 0 .99805 38.8 -14.464)" style="white-space:pre" x="160.008" y="338.18" fill="#eb5555" font-family="Roboto Mono" font-size="8">compose(as_paragraph(...))</text><text transform="matrix(1 0 0 .99805 38.8 -9.445)" style="white-space:pre" x="160.008" y="348.18" fill="#333" font-family="Roboto Mono" font-size="8">footnote(as_paragraph(...))</text><path fill="#aaa" d="M188.8 260.039h5v96h-5z"/><text transform="matrix(1 0 0 .99805 -133 -239.532)" style="white-space:pre" x="160.008" y="273.18" fill="#333" font-family="Roboto" font-size="14">Merge cells</text><text style="white-space:pre" x="160.008" y="293.18" transform="matrix(1 0 0 .99805 -133 -239.532)" fill="#333" font-family="Roboto Mono" font-size="8">merge_at() merge_h()</text><text style="white-space:pre" x="160.008" y="308.18" transform="matrix(1 0 0 .99805 -133 -239.532)" fill="#333" font-family="Roboto Mono" font-size="8">merge_v()</text><path fill="#aaa" d="M17 20h5v51h-5z"/><text style="white-space:pre" x="160.008" y="273.18" transform="matrix(1 0 0 .99805 -133 -177.532)" fill="#333" font-family="Roboto" font-size="14">Widths and heights</text><text transform="matrix(1 0 0 .99805 -133 -169.532)" style="white-space:pre" fill="#333" font-family="Roboto Mono" font-size="8"><tspan x="160.008" y="278.18" fill="#eb5555">set_table_properties(layout = &quot;autofit&quot;)</tspan></text><text transform="matrix(1 0 0 .99805 -133 -169.532)" style="white-space:pre" x="160.008" y="293.18" fill="#333" font-family="Roboto Mono" font-size="8">autofit() width()</text><text style="white-space:pre" x="160.008" y="308.18" transform="matrix(1 0 0 .99805 -133 -169.532)" fill="#333" font-family="Roboto Mono" font-size="8">height() hrule()</text><text style="white-space:pre" x="160.008" y="308.18" transform="matrix(1 0 0 .99805 -133 -155.32)" fill="#333" font-family="Roboto Mono" font-size="8">fit_to_width()</text><path fill="#aaa" d="M17 82h5v80h-5z"/><text style="white-space:pre" x="27" y="186.186" fill="#333" font-family="Roboto" font-size="14">Themes</text><text style="white-space:pre" x="27" y="206.186" fill="#333" font-family="Roboto Mono" font-size="8">theme_booktabs()</text><text style="white-space:pre" x="27" y="221.186" fill="#333" font-family="Roboto Mono" font-size="8">theme_vanilla()</text><text style="white-space:pre" x="27" y="236.186" fill="#333" font-family="Roboto Mono" font-size="8">theme_box()</text><text style="white-space:pre" x="27" y="251.186" fill="#333" font-family="Roboto Mono" font-size="8">theme_tron()</text><text style="white-space:pre" x="27" y="266.186" fill="#333" font-family="Roboto Mono" font-size="8">theme_tron_legacy()</text><path fill="#aaa" d="M17 173.077h5v95h-5z"/><text style="white-space:pre" x="27" y="296.187" fill="#eb5555" font-family="Roboto" font-size="14">Supported output</text><text style="white-space:pre" y="-7" x="-3" fill="#c90707" font-family="Roboto Mono" font-size="8"><tspan x="27" y="311.399" fill="#eb5555" word-spacing="0">R Markdown</tspan><tspan fill="#333" word-spacing="0">: HTML, Word and PowerPoint</tspan></text><text style="white-space:pre" y="-7" x="-3" fill="#333" font-family="Roboto Mono" font-size="8"><tspan x="27" y="326.399" word-spacing="0">Word and PowerPoint with </tspan><tspan fill="#eb5555" word-spacing="0">officer</tspan></text><text style="white-space:pre" y="7" x="-3" font-family="Roboto Mono" font-size="8"><tspan x="27" y="341.399" word-spacing="0">plot with </tspan><tspan fill="#eb5555" word-spacing="0">plot() </tspan><tspan word-spacing="0">- images with </tspan><tspan fill="#eb5555" word-spacing="0">save_as_images()</tspan></text><path fill="#eb5555" d="M17 283.078h5v62h-5z"/><text style="white-space:pre" x="160.008" y="273.18" transform="matrix(1 0 0 .99805 192.999 1.8)" fill="#333" font-family="Roboto" font-size="14">Utilities</text><text transform="matrix(1 0 0 .99805 192.999 1.8)" style="white-space:pre" x="160.008" y="293.18" fill="#eb5555" font-family="Roboto Mono" font-size="8">as_flextable()</text><text style="white-space:pre" x="160.008" y="308.18" transform="matrix(1 0 0 .99805 192.999 16.78)" fill="#333" font-family="Roboto Mono" font-size="8">as_grouped_data()</text><path fill="#aaa" d="M343.998 261.332h5v84h-5z"/><text style="white-space:pre" x="450.801" y="203.164" fill="#333" font-family="Roboto Mono" font-size="8">valign(): vertical alignment</text><text style="white-space:pre" x="450.808" y="218.148" fill="#eb5555" font-family="Roboto Mono" font-size="8">highlight(): text highlight color</text><text style="white-space:pre" x="450.808" y="233.148" fill="#eb5555" font-family="Roboto Mono" font-size="8">set_flextable_defaults()</text><text style="white-space:pre" x="160.008" y="308.18" transform="matrix(1 0 0 .99805 193 31.76)" fill="#333" font-family="Roboto Mono" font-size="8">proc_freq()</text><text transform="matrix(1 0 0 .99805 193 16.851)" style="white-space:pre" x="160.008" y="293.18" fill="#eb5555" font-family="Roboto Mono" font-size="8">for glm, lm, xtable</text></svg>